<svg xmlns="http://www.w3.org/2000/svg" width="150" height="150" style="shape-rendering:geometricPrecision;text-rendering:geometricPrecision;image-rendering:optimizeQuality;fill-rule:evenodd;clip-rule:evenodd">
  <path style="opacity:.974" fill="#eaeaea" d="M63.5 2.5c43.93-2.308 71.43 17.692 82.5 60 3.4 41.905-14.767 69.405-54.5 82.5-35.01 6.237-61.844-5.597-80.5-35.5C-4.43 75.998.736 46.164 26.5 20c10.89-9.012 23.224-14.846 37-17.5Z"/>
  <path style="opacity:1" fill="#070707" d="M70.5 10.5c6.444-.529 11.61 1.805 15.5 7 3.65 5.12 5.817 10.787 6.5 17-3.45.77-6.784 1.603-10 2.5-1.512-5.529-4.179-10.362-8-14.5-3.821 4.138-6.488 8.971-8 14.5-3.051-.29-6.051-1.123-9-2.5.093-10.18 4.427-18.18 13-24ZM25.5 36.5c14.523-1.118 28.19 1.716 41 8.5a18.941 18.941 0 0 1-5 3c-4.857.307-9.69.807-14.5 1.5a74.194 74.194 0 0 0-17.5-2c-.04 2.925.793 5.591 2.5 8a34.692 34.692 0 0 1 6.5 7.5 142.574 142.574 0 0 0-8.5 7.5c-8.363-6.722-12.363-15.388-12-26 2.028-3.192 4.528-5.859 7.5-8Z"/>
  <path style="opacity:1" fill="#060606" d="M103.5 36.5c6.009-.166 12.009 0 18 .5 9.439 3.048 12.272 9.215 8.5 18.5a60.738 60.738 0 0 1-11 15 142.48 142.48 0 0 0-8.5-7.5 34.692 34.692 0 0 1 6.5-7.5c1.707-2.409 2.54-5.075 2.5-8-19.14 1.103-36.64 7.103-52.5 18-2.031 8.614-7.531 12.114-16.5 10.5A134.786 134.786 0 0 0 31 95.5a10.1 10.1 0 0 0-1.5 6c8.258.27 16.258-1.064 24-4a40.896 40.896 0 0 1 13 7c-12.296 6.158-25.296 8.991-39 8.5-7.92-2.663-11.086-8.163-9.5-16.5 5.768-12.44 14.435-22.44 26-30 2.21-10.536 8.71-14.703 19.5-12.5 12.791-7.31 26.124-13.144 40-17.5Z"/>
  <path style="opacity:1" fill="#070707" d="M90.5 59.5c1.7-.16 3.366.007 5 .5 15.167 8.5 27 20.333 35.5 35.5 1.984 9.208-1.516 15.041-10.5 17.5a47.63 47.63 0 0 1-16-.5c-8.394 4.172-14.728 2.172-19-6a249.602 249.602 0 0 1-37-20.5l3-3a50.9 50.9 0 0 1 12-1A100.703 100.703 0 0 0 89 94.5c8.245-3.586 14.411-1.42 18.5 6.5 3.986.499 7.986.666 12 .5.04-2.924-.793-5.591-2.5-8-10.527-11.37-22.36-21.036-35.5-29a58.022 58.022 0 0 0 9-5Z"/>
  <path style="opacity:1" fill="#080808" d="M64.5 111.5c.996-.086 1.83.248 2.5 1 1.215 5.434 3.715 10.101 7.5 14 3.509-3.676 6.009-8.009 7.5-13a36.108 36.108 0 0 0 9 7c-1.412 7.753-5.579 13.587-12.5 17.5-5.784 1.509-10.618.009-14.5-4.5-4.17-5.679-6.67-12.013-7.5-19 3.042-.233 5.708-1.233 8-3Z"/>
</svg>
